<svg width="652" height="487" viewBox="0 0 652 487" fill="none" xmlns="http://www.w3.org/2000/svg">
<path d="M37.3557 189.538C9.91465 206.768 -4.27505 235.943 4.67038 268.613C19.6808 323.434 76.9165 338.129 126.471 323.797C167.5 311.931 204.035 287.589 236.033 259.965C276.502 225.029 310.517 182.629 329.032 132.082C343.803 91.7608 355.768 7.04667 292.17 2.22C229.688 -2.52195 193.722 70.4288 182.022 121.089C165.352 193.262 183.412 270.025 202.102 339.92C212.549 378.987 231.585 433.763 194.847 465.092C152.81 500.939 93.7788 485.245 63.0057 442.227C33.3282 400.74 46.1966 348.037 56.5566 302.398C58.8605 292.248 60.6215 281.108 64.7646 271.471C65.2895 270.25 67.2456 268.025 67.9892 269.126C71.2749 273.994 72.0938 280.133 73.9986 285.689C91.2901 336.122 114.065 392.328 162.601 420.314C203.103 443.668 249.712 435.253 285.134 406.83C316.595 381.586 324.564 347.888 338.706 312.658C347.781 290.05 357.001 268.684 361.718 244.576C368.267 211.1 368.68 177.176 373.737 143.588C374.421 139.045 375.31 134.501 376.375 130.03C377.852 123.827 373.079 142.349 371.392 148.498C351.401 221.322 330.278 293.943 315.181 367.988C308.817 399.204 301.634 432.487 302.503 464.652C302.787 475.169 304.614 443.712 306.021 433.286C310.665 398.867 316.959 364.117 329.912 331.712C339.965 306.563 353.926 283.203 372.564 263.483C386.298 248.952 407.367 230.268 429.434 234.682C446.257 238.047 450.03 254.921 446.07 269.566C438.936 295.948 416.365 314.617 395.283 330.026C390.41 333.588 319.39 375.173 331.231 383.598C341.279 390.748 362.628 387.823 373.444 386.969C399.825 384.887 428.09 380.418 452.152 368.795C477.582 356.51 511.483 321.18 498.469 289.793C491.271 272.434 473.918 274.52 459.701 282.098C435.702 294.889 419.502 318.276 408.84 342.632C396.576 370.649 393.3 404.12 418.001 426.69C435.448 442.632 468.476 443.044 490.407 439.295C558.901 427.589 628.593 375.001 645.846 305.989C651.697 282.586 650.69 256.066 642.548 233.216C640.246 226.755 635.328 210.577 627.012 211.963" stroke="black" stroke-width="3" stroke-linecap="round"/>
</svg>
