<?xml version="1.0" encoding="UTF-8"?>
<svg version="1.1" xmlns="http://www.w3.org/2000/svg" width="600" height="300">
<path d="M0 0 C6.09615508 5.04995025 10.84232697 10.36849486 11.9921875 18.38671875 C12.89985097 42.97872582 1.26946119 74.25977953 -15.4453125 92.3359375 C-19.88168056 96.65999245 -23.58129404 100.23500293 -29.9921875 100.4609375 C-31.39339148 100.42514277 -32.79444564 100.38311695 -34.1953125 100.3359375 C-50.34046809 100.10876077 -64.02345025 103.12230082 -78.9453125 109.1484375 C-82.698846 110.42195779 -85.50986161 110.72948259 -89.4453125 110.3359375 C-91.4453125 108.3359375 -91.4453125 108.3359375 -92.0078125 105.2109375 C-91.18999893 99.57711065 -88.41110943 97.25780947 -84.4453125 93.3359375 C-83.30941528 92.19969896 -82.17404094 91.06293756 -81.0390625 89.92578125 C-79.20322283 88.08776009 -77.36425472 86.25402078 -75.50927734 84.43530273 C-74.34703904 83.29096736 -73.19513168 82.13603279 -72.05444336 80.97021484 C-70.59223038 79.48515132 -69.08163271 78.04812049 -67.56640625 76.6171875 C-64.48152715 71.84499883 -64.66516464 67.5326949 -64.6328125 61.9609375 C-64.60767578 60.93871094 -64.58253906 59.91648437 -64.55664062 58.86328125 C-64.4980074 56.35377938 -64.46155378 53.84601209 -64.4453125 51.3359375 C-65.01040527 51.61381104 -65.57549805 51.89168457 -66.15771484 52.17797852 C-68.70798362 53.42635633 -71.263987 54.66251289 -73.8203125 55.8984375 C-74.70976563 56.33607422 -75.59921875 56.77371094 -76.515625 57.22460938 C-77.79179688 57.83852539 -77.79179688 57.83852539 -79.09375 58.46484375 C-79.87927246 58.84713135 -80.66479492 59.22941895 -81.47412109 59.62329102 C-82.12461426 59.85846436 -82.77510742 60.0936377 -83.4453125 60.3359375 C-84.1053125 60.0059375 -84.7653125 59.6759375 -85.4453125 59.3359375 C-84.09883417 55.20289706 -82.41938701 53.02800136 -79.1328125 50.2109375 C-78.37355469 49.54835937 -77.61429688 48.88578125 -76.83203125 48.203125 C-73.18183918 45.34749192 -69.96784565 43.35848565 -65.4453125 42.3359375 C-65.41608604 38.96095592 -65.39843782 35.58600729 -65.3828125 32.2109375 C-65.37024414 30.78394531 -65.37024414 30.78394531 -65.35742188 29.328125 C-65.34081642 24.54575263 -65.43994195 20.03822181 -66.4453125 15.3359375 C-66.99356689 15.54798828 -67.54182129 15.76003906 -68.10668945 15.97851562 C-90.90006539 24.68357159 -90.90006539 24.68357159 -99.80859375 21.48828125 C-102.84001741 20.07218103 -105.07242853 18.70882147 -107.4453125 16.3359375 C-107.4453125 15.3459375 -107.4453125 14.3559375 -107.4453125 13.3359375 C-105.04196559 12.13426405 -102.84256651 12.03565425 -100.19506836 11.79248047 C-90.62211064 10.88850433 -81.73569956 8.72991138 -72.49462891 6.16455078 C-66.74495709 4.60214997 -60.96958137 3.14059751 -55.19216919 1.68487549 C-53.12730273 1.16284551 -51.06452016 0.63311011 -49.00170898 0.10302734 C-13.20861541 -8.98861049 -13.20861541 -8.98861049 0 0 Z M-34.0078125 6.6484375 C-34.98427734 6.86177734 -35.96074219 7.07511719 -36.96679688 7.29492188 C-42.92933575 8.63100918 -48.69356201 10.27348185 -54.4453125 12.3359375 C-53.9709375 13.2228125 -53.4965625 14.1096875 -53.0078125 15.0234375 C-50.47017569 20.40322753 -50.30966842 25.26877849 -50.3828125 31.1484375 C-50.38732422 31.84130859 -50.39183594 32.53417969 -50.39648438 33.24804688 C-50.40818094 34.94404818 -50.42611326 36.64000453 -50.4453125 38.3359375 C-49.26775391 38.37460938 -49.26775391 38.37460938 -48.06640625 38.4140625 C-40.29627632 38.83355418 -35.16799372 39.61325628 -29.5078125 45.2734375 C-28.1490955 47.91094698 -28.10809011 49.38740329 -28.4453125 52.3359375 C-34.03394862 60.54640291 -42.6746638 68.01319702 -50.59375 73.9453125 C-55.7491069 77.81726831 -57.35186501 82.02518342 -58.4453125 88.3359375 C-58.4453125 89.6559375 -58.4453125 90.9759375 -58.4453125 92.3359375 C-57.48044922 92.119375 -57.48044922 92.119375 -56.49609375 91.8984375 C-37.68400932 88.03404355 -37.68400932 88.03404355 -30.1328125 92.3359375 C-29.2459375 92.9959375 -28.3590625 93.6559375 -27.4453125 94.3359375 C-23.89943199 87.02350438 -21.13927453 79.7993411 -19.0078125 71.9609375 C-18.71632324 70.90600098 -18.42483398 69.85106445 -18.12451172 68.76416016 C-13.42730016 51.31555784 -8.47832393 32.69801048 -8.1328125 14.5859375 C-8.09542969 13.29171875 -8.05804688 11.9975 -8.01953125 10.6640625 C-8.09476412 7.32368346 -8.09476412 7.32368346 -10.18896484 5.64868164 C-16.99094898 1.69128403 -26.83618745 4.98979128 -34.0078125 6.6484375 Z M-51.4453125 47.3359375 C-51.7753125 50.9659375 -52.1053125 54.5959375 -52.4453125 58.3359375 C-49.53728789 56.11665556 -47.49218488 54.40624607 -45.4453125 51.3359375 C-45.4453125 50.0159375 -45.4453125 48.6959375 -45.4453125 47.3359375 C-47.4253125 47.3359375 -49.4053125 47.3359375 -51.4453125 47.3359375 Z M-65.4453125 88.3359375 C-67.13619472 90.31550692 -68.80361722 92.31538946 -70.4453125 94.3359375 C-68.4653125 94.3359375 -66.4853125 94.3359375 -64.4453125 94.3359375 C-64.4453125 92.3559375 -64.4453125 90.3759375 -64.4453125 88.3359375 C-64.7753125 88.3359375 -65.1053125 88.3359375 -65.4453125 88.3359375 Z " fill="black" transform="translate(182.4453125,48.6640625)"/>
<path d="M0 0 C2.5625 1.6875 2.5625 1.6875 4 4 C3.88847671 8.00368625 3.27404857 9.6815601 0.63671875 12.74609375 C-0.33652344 13.63425781 -1.30976563 14.52242187 -2.3125 15.4375 C-8.79005751 21.60872864 -12.52480081 26.36661544 -13.09765625 35.57421875 C-12.89316716 40.65372766 -10.92064341 43.9582193 -7.625 47.6875 C-5.9036518 49.20392579 -4.13237767 50.6658497 -2.3125 52.0625 C0.0046541 54.00389938 1.02774209 55.17161335 2 58 C2 59.32 2 60.64 2 62 C2.99 61.67 3.98 61.34 5 61 C11.83550254 60.73940899 18.31229669 61.39510993 25.0625 62.4375 C26.15014648 62.60362793 27.23779297 62.76975586 28.35839844 62.94091797 C40.98184735 64.98838402 53.42003508 67.89779188 65.86352539 70.82592773 C83.13136715 74.87413284 99.19932434 76.23347308 116.89404297 75.95898438 C132.82480464 75.73448263 148.71585005 75.95017072 164 81 C164 82.32 164 83.64 164 85 C163.47535156 85.20753906 162.95070313 85.41507812 162.41015625 85.62890625 C158.25101164 87.28287557 154.10045543 88.95276886 149.97265625 90.68359375 C146.33160951 92.20962982 142.68020451 93.70768248 139.01855469 95.18359375 C137.23965553 95.9030711 135.46696494 96.63785856 133.6953125 97.375 C107.8993375 107.22810451 68.40831947 86.63722772 43.6875 77.5 C40.46226612 76.32214937 37.23338838 75.15526507 34 74 C32.40091797 73.42765625 32.40091797 73.42765625 30.76953125 72.84375 C18.79070964 69.19434878 2.98373072 69.24385947 -9 73 C-12.67144774 74.9769334 -15.07147704 76.98005036 -17.5625 80.25 C-20 83 -20 83 -22.5 83.75 C-26.37712801 82.5868616 -27.83351614 80.31344591 -30 77 C-29.84667969 74.91967773 -29.84667969 74.91967773 -29 73 C-26.41983792 71.51846858 -23.95516307 70.26505929 -21.25 69.0625 C-15.99334361 66.70362272 -11.68136204 64.63068965 -8 60 C-8 58.68 -8 57.36 -8 56 C-9.80845404 54.22494769 -9.80845404 54.22494769 -12.1875 52.6875 C-17.32484069 48.92551036 -20.94161089 45.17516732 -23 39 C-23.07973476 37.66474283 -23.10771338 36.32587917 -23.09765625 34.98828125 C-23.09515869 34.30548096 -23.09266113 33.62268066 -23.09008789 32.91918945 C-23.08098389 32.05898193 -23.07187988 31.19877441 -23.0625 30.3125 C-23.041875 27.569375 -23.02125 24.82625 -23 22 C-28.94 22 -34.88 22 -41 22 C-41 21.01 -41 20.02 -41 19 C-40.17757813 18.731875 -39.35515625 18.46375 -38.5078125 18.1875 C-30.33644816 15.3190303 -24.41325108 11.77079887 -18 6 C-11.95537039 0.69809426 -8.28923955 -2.1305676 0 0 Z " fill="black" transform="translate(339,160)"/>
<path d="M0 0 C7.8453242 0.42028522 13.117472 2.8218281 18.4375 8.6875 C21.18361928 12.75175653 21.00820338 14.84085403 20.625 19.75 C20.53476562 20.96171875 20.44453125 22.1734375 20.3515625 23.421875 C20.0341826 26.65209706 19.577808 29.80736594 19 33 C19.59167969 33.01417969 20.18335938 33.02835938 20.79296875 33.04296875 C25.11528856 33.30385918 27.50022008 33.65015406 31.125 36.1875 C33 39 33 39 32.6171875 42.17578125 C32.41351563 43.10777344 32.20984375 44.03976563 32 45 C29.5636811 45.67126129 27.12611117 46.33716354 24.6875 47 C23.99720703 47.19078125 23.30691406 47.3815625 22.59570312 47.578125 C19.64212051 48.37716184 17.07440781 49 14 49 C13.90203125 49.55945313 13.8040625 50.11890625 13.703125 50.6953125 C12.28944095 58.27558388 10.19292082 65.61219879 8 73 C13.00625884 71.003488 18.00921725 68.999776 23 66.96484375 C24.66666667 66.2890625 26.33333333 65.61328125 28 64.9375 C29.2375 64.42993164 29.2375 64.42993164 30.5 63.91210938 C50.78155796 55.72026135 50.78155796 55.72026135 59.26953125 58.83203125 C62.29474298 60.28740338 64.61566445 61.61566445 67 64 C66.75 67.5625 66.75 67.5625 66 71 C63.49295505 72.25352247 61.916238 72.0532281 59.1171875 71.95703125 C39.05486131 71.4645746 23.90299432 75.04850284 6 84 C5.72786412 85.69933741 5.53493063 87.41145754 5.375 89.125 C4.33769879 96.26609015 1.312838 101.68551411 -2.22265625 107.84765625 C-4.06811819 110.8869085 -4.06811819 110.8869085 -5 114 C1.14962516 112.92625592 5.67123677 111.35473967 10.95703125 108.0234375 C13 107 13 107 17 107 C12.57857218 117.52157958 -1.70864618 125.22831774 -11.140625 130.8828125 C-14 132 -14 132 -16.234375 131.421875 C-20.13779507 128.27841282 -21.7128149 123.62738225 -22.5625 118.8125 C-21.80017939 115.00089697 -19.81889952 113.43955805 -17 111 C-9.99003051 104.54034587 -1.82212761 96.77115931 0 87 C-9.21146543 91.99064986 -18.34494378 97.04943015 -25.64453125 104.73046875 C-27 106 -27 106 -29 106 C-29.25394531 106.56589844 -29.50789063 107.13179688 -29.76953125 107.71484375 C-32.60149925 112.97421289 -37.07090334 118.44165338 -42.5 121.125 C-48.182049 122.54551225 -52.06132135 122.00662161 -57.25 119.3125 C-60.2612613 116.780303 -62.15337435 114.47165623 -64 111 C-63.67 110.01 -63.34 109.02 -63 108 C-62.29875 108.33 -61.5975 108.66 -60.875 109 C-56.78455957 110.42276189 -53.5248891 110.70807053 -49.53515625 108.85546875 C-48.71917969 108.30503906 -47.90320313 107.75460938 -47.0625 107.1875 C-46.10988281 106.54941406 -45.15726562 105.91132813 -44.17578125 105.25390625 C-40.01483468 102.30081133 -35.93038733 99.2496351 -31.83911133 96.20117188 C-27.4387835 92.95970264 -22.93806762 89.99506702 -18.25 87.1875 C-17.63068604 86.80553467 -17.01137207 86.42356934 -16.37329102 86.0300293 C-13.46442324 84.27636336 -10.94887784 82.9838625 -7.68359375 81.953125 C-4.26409341 80.79397234 -2.52908092 79.5671143 0 77 C0.90105151 74.32986729 0.90105151 74.32986729 1.08203125 71.36328125 C1.18926514 70.29021729 1.29649902 69.21715332 1.40698242 68.11157227 C1.68321918 63.85232938 1.83934764 59.60290056 1.87744141 55.33496094 C2 53 2 53 3 51 C2.28714844 51.02320313 1.57429688 51.04640625 0.83984375 51.0703125 C-4.88360394 51.17815674 -9.59838814 50.92057311 -15 49 C-15 48.01 -15 47.02 -15 46 C-12.58394775 45.18563413 -10.16720002 44.37344603 -7.75 43.5625 C-7.06808594 43.33240234 -6.38617188 43.10230469 -5.68359375 42.86523438 C-2.47933387 41.79196286 0.70046619 40.73984392 4 40 C6.25094719 22.60348343 6.25094719 22.60348343 2 6 C0.47563139 4.2921043 0.47563139 4.2921043 -1 3 C-0.67 2.01 -0.34 1.02 0 0 Z " fill="black" transform="translate(406,31)"/>
<path d="M0 0 C3.67670584 1.51052023 5.71874462 3.6488615 8.3125 6.625 C9.10269531 7.52347656 9.89289063 8.42195312 10.70703125 9.34765625 C12.08123657 10.93723957 13.45409312 12.52799264 14.82421875 14.12109375 C16.53072113 16.09809068 18.26184043 18.0508056 20 20 C20.59425781 20.69609375 21.18851563 21.3921875 21.80078125 22.109375 C34.528755 36.04835984 54.98136234 46.35542055 73.91015625 47.37109375 C75.62728938 47.41073133 77.34491711 47.43236666 79.0625 47.4375 C79.96701904 47.44136719 80.87153809 47.44523437 81.8034668 47.44921875 C90.47703835 47.30268767 97.98712379 45.17341632 106 42 C106.38528802 35.63561278 105.36097713 31.46080941 102.625 25.75 C102.30789062 25.05648437 101.99078125 24.36296875 101.6640625 23.6484375 C100.42878662 20.96171247 99.16657889 18.31193754 97.7734375 15.703125 C97 14 97 14 97 11 C102.33050105 11.38075007 105.34376033 13.27912983 109 17 C110.07166221 18.24215392 111.13354722 19.4927849 112.1875 20.75 C117.04179691 26.4564957 122.97683463 31.05124721 129.00390625 35.46875 C131.64818974 37.45674144 132.92919088 38.81510952 134.125 41.9375 C133.96051801 45.96730866 132.83081186 48.24762374 130 51 C113.67849498 62.95126597 91.35687499 66.24963678 71.58642578 63.29907227 C51.50322144 59.59690328 34.21355182 49.37739679 20 35 C19.18789062 34.19820312 18.37578125 33.39640625 17.5390625 32.5703125 C8.91945044 23.59767878 3.09913916 12.70412103 -1 1 C-0.67 0.67 -0.34 0.34 0 0 Z " fill="black" transform="translate(85,198)"/>
<path d="M0 0 C4.04574496 3.03857638 6.81314406 5.93943219 8.4375 10.8125 C8.4375 14.86085453 7.17638711 15.86731851 4.4375 18.8125 C2.20005698 20.61307519 -0.15318664 22.18946721 -2.5625 23.75 C-3.22096924 24.1816748 -3.87943848 24.61334961 -4.55786133 25.05810547 C-19.68574854 34.8125 -19.68574854 34.8125 -26.5625 34.8125 C-25.35245828 29.97233314 -23.22654202 26.87261276 -20.22265625 23.02734375 C-16.24956256 17.72676934 -12.56420509 12.44732314 -11.5625 5.8125 C-26.75841034 4.29963282 -38.68732299 13.35703473 -49.921875 22.5234375 C-53.18278394 25.23292522 -56.37786885 28.01413379 -59.5625 30.8125 C-60.96242187 32.02679688 -60.96242187 32.02679688 -62.390625 33.265625 C-66.19866932 36.61761611 -69.69991101 39.86161006 -72.8125 43.875 C-74.8795594 46.37293939 -75.31134708 46.75099316 -78.625 47.5625 C-82.52484104 46.56679591 -84.07863622 44.93507161 -86.5625 41.8125 C-88.2723285 36.5356155 -88.87246833 30.54889092 -86.43652344 25.46044922 C-84.86982652 23.12563421 -83.20413911 20.93717602 -81.4375 18.75 C-80.28743019 17.26037338 -79.13898855 15.7694883 -77.9921875 14.27734375 C-77.42081055 13.55144043 -76.84943359 12.82553711 -76.26074219 12.07763672 C-73.97699984 9.03155254 -71.99016508 5.82280453 -70.02392578 2.56469727 C-68.29499163 0.49176702 -67.19288461 0.17272536 -64.5625 -0.1875 C-64.28925834 4.4439462 -64.97244219 7.31544155 -67.0625 11.4375 C-68.90016283 15.08219795 -69.5625 16.62651588 -69.5625 20.8125 C-63.61956605 20.38582782 -60.16893698 18.64920606 -55.3125 15.3125 C-49.29674877 11.3727475 -43.18739336 7.95321728 -36.6875 4.875 C-35.92791992 4.51019531 -35.16833984 4.14539063 -34.38574219 3.76953125 C-24.14279997 -0.99008472 -10.63933227 -6.28057417 0 0 Z " fill="black" transform="translate(220.5625,165.1875)"/>
<path d="M0 0 C4.39322021 4.04638703 6.55200243 7.01070645 7.44140625 12.9453125 C7.826879 23.06708076 4.98744169 28.54966438 -1.77294922 35.9375 C-8.70312961 43.29127716 -15.7498733 50.13687516 -24 56 C-23.76966064 56.59385498 -23.53932129 57.18770996 -23.30200195 57.79956055 C-20.20536881 66.05442094 -20.72855814 74.33396742 -21 83 C-16.64569826 82.45767722 -14.10913322 80.93308731 -10.625 78.3125 C-9.66980469 77.59707031 -8.71460938 76.88164062 -7.73046875 76.14453125 C-5.40599718 74.31887332 -3.15740488 72.44997933 -0.9375 70.5 C2 68 2 68 4 68 C2.55662959 73.77348166 -0.45110656 77.66528324 -4.0625 82.25 C-4.64306152 82.99709229 -5.22362305 83.74418457 -5.82177734 84.51391602 C-17.37012494 99.24674996 -17.37012494 99.24674996 -23 103 C-26.42601775 102.90984164 -27.96411082 102.02610122 -30.75 100 C-33.76892422 95.9747677 -34.53916926 93.0022926 -34 88 C-32.93284616 84.78236948 -31.66303201 81.76876953 -30.2265625 78.69921875 C-28.26024384 74.37206527 -27.88094759 71.00040244 -27.9375 66.25 C-27.94652344 65.26515625 -27.95554687 64.2803125 -27.96484375 63.265625 C-27.97644531 62.51796875 -27.98804688 61.7703125 -28 61 C-30.63098228 61 -31.84761422 61.9547101 -34.10546875 63.30078125 C-35.33426758 64.02491211 -35.33426758 64.02491211 -36.58789062 64.76367188 C-37.44576172 65.27478516 -38.30363281 65.78589844 -39.1875 66.3125 C-54.72839915 75.57014553 -54.72839915 75.57014553 -61 75 C-59.65585757 70.9675727 -57.73587482 70.2898172 -54.1875 68 C-47.13422701 63.29424936 -41.06927332 57.89705323 -35 52 C-34.49049805 51.51096191 -33.98099609 51.02192383 -33.45605469 50.51806641 C-12.84266925 31.1106879 -12.84266925 31.1106879 -2.5 5.8125 C-2 2 -2 2 0 0 Z " fill="black" transform="translate(435,124)"/>
<path d="M0 0 C1.32 0.66 2.64 1.32 4 2 C4.23655974 7.79571371 3.72753429 12.41091847 2 18 C1.57172655 20.66376675 1.28261274 23.31517896 1 26 C1.53109375 25.69964844 2.0621875 25.39929688 2.609375 25.08984375 C3.31578125 24.70957031 4.0221875 24.32929688 4.75 23.9375 C5.44609375 23.55464844 6.1421875 23.17179687 6.859375 22.77734375 C9.36140628 21.8687594 10.5332355 22.11663163 13 23 C11.5566019 27.25259224 9.41244954 30.24948198 6.625 33.75 C1.60698261 40.24730579 -1.28398106 46.4081937 -3.5625 54.25 C-5.59373308 61.22353817 -5.59373308 61.22353817 -8 64 C-10.40234375 64.34375 -10.40234375 64.34375 -13 64 C-18.26649007 59.31603366 -20.73840695 53.13911663 -21.3125 46.25 C-20.87049847 33.26006618 -12.91193298 22.03202669 -6.3515625 11.296875 C-4.38255831 7.95070603 -2.71039921 4.48414654 -1 1 C-0.67 0.67 -0.34 0.34 0 0 Z " fill="black" transform="translate(61,177)"/>
<path d="M0 0 C4.07106084 0.09929417 6.45465918 1.031062 9.375 3.75 C21.5726816 17.03191996 24.0066075 31.17311062 25.6875 48.625 C25.81705078 49.85734375 25.94660156 51.0896875 26.08007812 52.359375 C28.08740268 72.36889598 28.08740268 72.36889598 25 77 C22.49527481 76.63991266 21.31650395 76.38925262 19.69140625 74.390625 C11.0611231 58.02593584 7.6062467 41.25011075 5.86303711 22.97094727 C5.20962093 17.07751392 3.41325583 12.03107746 1.0234375 6.63671875 C0 4 0 4 0 0 Z " fill="black" transform="translate(59,75)"/>
<path d="M0 0 C14.36056028 0.36869218 29.10094709 1.71589192 39.625 12.6953125 C42.69656017 16.58711885 43.80241589 19.96160511 44 25 C43 27 43 27 40.875 27.8125 C33.28781001 28.30731674 27.4689103 22.58682799 22 18 C20.87411638 16.9801413 19.74905779 15.95937072 18.625 14.9375 C14.98916065 11.76038805 10.91688704 9.61436962 6.6484375 7.39453125 C4.03696606 6.01946443 1.51693843 4.54014825 -1 3 C-0.67 2.01 -0.34 1.02 0 0 Z " fill="black" transform="translate(441,180)"/>
<path d="M0 0 C0.71542969 0.06058594 1.43085938 0.12117188 2.16796875 0.18359375 C3.16441406 0.26738281 4.16085937 0.35117188 5.1875 0.4375 C6.82138672 0.57865234 6.82138672 0.57865234 8.48828125 0.72265625 C10.81681861 0.90655631 13.14792371 1.06055265 15.48046875 1.18359375 C26.31506849 1.79452055 26.31506849 1.79452055 31 5 C31.639375 5.4125 32.27875 5.825 32.9375 6.25 C34 8 34 8 34 11.5 C33 15 33 15 31.125 16.8125 C27.32466119 18.25662875 23.58215741 18.82036477 19.58203125 19.484375 C14.07973912 20.58316859 11.04924513 23.77232501 7.4296875 27.79296875 C6 29 6 29 3 29 C3.89351715 26.61728761 4.81998372 24.32349789 6.05859375 22.09765625 C7.84319274 18.88043799 8.96464176 16.58930407 9.1875 12.875 C7.70161458 9.27759318 5.70008347 7.74555236 2.59375 5.4921875 C0.71044425 3.72889633 0.38808811 2.51179247 0 0 Z " fill="black" transform="translate(307,100)"/>
<path d="M0 0 C5.32 1.86666667 5.32 1.86666667 7.125 4.875 C6.88535136 8.94902683 3.44672656 11.59609068 0.5546875 14.2109375 C-21.47292419 32 -21.47292419 32 -28 32 C-27.55165086 27.61840615 -24.87737896 25.74315771 -21.75 22.875 C-17.03513293 18.36234037 -12.46942716 13.57316273 -11 7 C-11.80203812 4.25526704 -11.80203812 4.25526704 -13 2 C-8.73441274 -0.84372484 -5.0052571 -0.50518899 0 0 Z " fill="black" transform="translate(474,141)"/>
<path d="M0 0 C3.36720387 1.39332574 4.9859524 2.9789286 7 6 C6.01 6.33 5.02 6.66 4 7 C3.34 7.66 2.68 8.32 2 9 C1.01 6.36 0.02 3.72 -1 1 C-0.67 0.67 -0.34 0.34 0 0 Z " fill="black" transform="translate(85,198)"/>
<path d="M0 0 C0.66 0.33 1.32 0.66 2 1 C1.67 1.33 1.34 1.66 1 2 C2.32 2.66 3.64 3.32 5 4 C2.36 4 -0.28 4 -3 4 C-3 3.01 -3 2.02 -3 1 C-2.01 0.67 -1.02 0.34 0 0 Z " fill="black" transform="translate(301,178)"/>
</svg>
