<?xml version="1.0" standalone="no"?>
<!DOCTYPE svg PUBLIC "-//W3C//DTD SVG 20010904//EN"
 "http://www.w3.org/TR/2001/REC-SVG-20010904/DTD/svg10.dtd">
<svg version="1.0" xmlns="http://www.w3.org/2000/svg"
 width="500.000000pt" height="500.000000pt" viewBox="0 0 500.000000 500.000000"
 preserveAspectRatio="xMidYMid meet">
<metadata>
Created by potrace 1.14, written by Peter Selinger 2001-2017
</metadata>
<g transform="translate(0.000000,500.000000) scale(0.100000,-0.100000)"
fill="#000000" stroke="none">
<path d="M2007 4080 c-19 -16 -45 -30 -59 -30 -28 0 -108 -28 -158 -55 -19
-11 -38 -18 -42 -17 -5 1 -8 -2 -8 -6 0 -5 -21 -19 -46 -33 -76 -40 -84 -46
-77 -52 3 -4 -1 -7 -9 -7 -19 0 -144 -124 -164 -162 -8 -15 -20 -28 -26 -28
-6 0 -9 3 -5 6 3 4 -1 13 -9 21 -8 8 -11 19 -8 25 4 6 2 8 -3 5 -10 -6 -15 -1
-24 28 -1 6 -13 18 -26 28 -13 10 -21 23 -18 28 4 5 2 9 -4 9 -5 0 -16 2 -23
5 -12 5 -36 -27 -43 -55 -3 -15 -28 -86 -33 -95 -3 -5 -7 -16 -8 -25 -3 -25
-28 -84 -39 -92 -5 -4 -13 -4 -17 -2 -4 3 -8 1 -8 -4 0 -13 -50 -33 -62 -26
-6 4 -8 2 -4 -4 3 -6 -6 -13 -24 -17 -16 -4 -30 -11 -30 -16 0 -5 -6 -9 -14
-9 -11 0 -63 -35 -101 -69 -37 -33 -105 -111 -119 -138 -9 -18 -20 -33 -25
-33 -5 0 -12 -11 -15 -25 -4 -14 -11 -25 -16 -25 -6 0 -10 -7 -10 -15 0 -8 -4
-23 -9 -33 -9 -16 -21 -47 -26 -64 -2 -5 -4 -9 -5 -10 -1 -2 -3 -14 -5 -28 -1
-14 -7 -50 -12 -80 -10 -59 -9 -134 2 -221 8 -65 13 -94 15 -94 1 0 3 -10 6
-23 2 -13 0 -21 -5 -18 -5 4 -11 2 -13 -4 -2 -6 -22 -11 -45 -13 -24 -1 -43
-6 -43 -10 0 -4 -6 -7 -12 -6 -7 1 -27 -4 -45 -10 -18 -7 -34 -11 -35 -9 -2 1
-14 -7 -28 -19 -13 -13 -27 -23 -31 -23 -16 0 13 -59 32 -65 11 -4 17 -11 14
-16 -3 -5 1 -6 10 -3 8 4 21 1 29 -5 7 -6 16 -8 19 -4 4 3 14 0 23 -8 10 -8
19 -13 21 -11 2 2 22 0 46 -3 23 -4 53 -8 67 -10 76 -11 107 -20 120 -36 39
-46 50 -60 50 -65 0 -5 129 -134 135 -134 2 0 17 -12 32 -26 15 -15 61 -51
101 -81 70 -52 82 -73 41 -73 -10 0 -27 -4 -37 -9 -9 -5 -32 -16 -49 -23 -18
-7 -33 -19 -33 -26 0 -8 -5 -10 -12 -6 -6 4 -3 -4 8 -19 19 -26 108 -76 148
-82 80 -14 249 -36 347 -45 123 -12 1277 -22 1294 -11 6 3 69 6 140 6 72 0
136 4 144 9 10 7 12 6 6 -4 -6 -9 -4 -11 6 -4 8 4 59 9 114 10 87 2 250 11
250 14 0 3 36 8 104 14 41 4 93 10 115 14 23 4 67 7 98 7 32 0 59 3 60 6 2 3
57 16 123 27 66 12 131 23 145 26 14 3 39 7 55 10 17 3 57 14 90 25 32 11 63
17 69 14 5 -3 6 -2 3 4 -4 6 4 15 18 21 13 6 29 20 35 32 9 17 6 24 -16 45
-15 14 -33 25 -40 25 -8 0 -14 5 -14 12 0 6 -3 8 -7 5 -3 -4 -17 0 -30 8 -13
9 -23 13 -23 9 0 -4 -6 -2 -12 3 -12 9 -48 21 -87 29 -32 6 -29 22 11 64 23
25 45 44 50 42 4 -1 7 1 7 5 -3 21 2 34 11 28 6 -4 10 -3 9 2 -1 4 10 34 24
66 36 77 69 176 71 210 0 15 3 27 6 27 3 0 6 8 6 18 1 9 4 33 8 52 18 86 22
297 6 330 -1 3 -3 10 -4 15 -10 62 -19 96 -27 101 -5 3 -7 9 -4 14 8 13 -51
149 -90 205 -19 28 -61 78 -92 111 -32 32 -57 62 -55 67 1 4 -1 6 -5 5 -10 -3
-123 78 -141 101 -7 9 -15 14 -18 13 -3 -2 -37 13 -77 34 -80 43 -227 105
-227 97 0 -3 -7 0 -15 7 -8 7 -15 9 -15 5 0 -4 -7 -2 -15 5 -8 7 -15 10 -15 7
0 -3 -12 0 -27 8 -15 8 -30 12 -35 9 -4 -3 -8 0 -8 6 0 6 -4 8 -10 5 -5 -3
-10 -2 -10 4 0 5 -9 8 -20 6 -11 -2 -20 0 -20 4 0 4 -6 8 -12 9 -40 5 -55 9
-67 17 -10 6 -12 4 -6 -4 4 -8 -4 -6 -18 4 -15 9 -31 14 -37 10 -5 -3 -10 -1
-10 6 0 7 -3 9 -7 6 -3 -4 -13 -1 -21 6 -13 10 -14 9 -7 -3 7 -12 6 -13 -7 -3
-8 7 -18 10 -21 6 -4 -3 -7 -2 -7 4 0 5 -16 9 -35 8 -19 -1 -35 3 -35 8 0 5
-7 6 -16 3 -9 -3 -21 -3 -27 1 -29 18 -187 32 -440 38 -99 3 -153 8 -163 16
-9 7 -24 30 -35 52 -16 30 -32 44 -77 64 -65 29 -204 53 -309 53 -66 0 -75 -3
-106 -30z"/>
</g>
</svg>
