<svg width="194" height="194" viewBox="0 0 194 194" fill="none" xmlns="http://www.w3.org/2000/svg">
<g id="Logos/cplusplus-original">
<path id="Vector" d="M174.364 46.9899L101.397 4.99219C100.188 4.23683 98.5267 3.93469 96.7138 3.93469C94.901 3.93469 93.2392 4.38791 92.0306 4.99219L19.5166 47.141C16.9483 48.6517 15.1355 52.4285 15.1355 55.2988V139.445C15.1355 141.107 15.4376 143.071 16.6462 144.733L177.99 51.0688C177.084 49.256 175.724 47.8963 174.364 46.9899V46.9899Z" fill="#70A1CA"/>
<path id="Vector_2" d="M16.1931 144.582C16.9485 145.79 18.006 146.848 19.0635 147.452L91.8797 189.601C93.0882 190.356 94.75 190.658 96.5629 190.658C98.3757 190.658 100.038 190.205 101.246 189.601L173.76 147.452C176.328 145.941 178.141 142.165 178.141 139.294V55.1478C178.141 53.7882 177.99 52.2775 177.235 50.9178L16.1931 144.582V144.582Z" fill="#306998"/>
<path id="Vector_3" d="M128.892 115.576C122.547 126.755 110.461 134.309 96.714 134.309C76.3195 134.309 59.7017 117.691 59.7017 97.2966C59.7017 76.902 76.3195 60.2842 96.714 60.2842C110.461 60.2842 122.547 67.8377 128.892 79.1681L148.531 67.8377C138.259 49.8603 118.921 37.6235 96.714 37.6235C63.7806 37.6235 37.041 64.3631 37.041 97.2966C37.041 130.23 63.7806 156.97 96.714 156.97C118.77 156.97 138.107 144.884 148.38 127.058L128.892 115.576V115.576Z" fill="white"/>
<path id="Vector_4" d="M124.058 93.9729H131.914V85.9662H138.561V93.9729H146.567V100.62H138.561V108.476H131.914V100.62H124.058V93.9729V93.9729ZM152.006 93.9729H159.862V85.9662H166.509V93.9729H174.516V100.62H166.509V108.476H159.862V100.62H152.006V93.9729V93.9729Z" fill="white"/>
</g>
</svg>
