<svg width="195" height="195" viewBox="0 0 195 195" fill="none" xmlns="http://www.w3.org/2000/svg">
<path d="M29.364 173.209L14.1753 2.84497H181.078L165.875 173.184L97.5257 192.132L29.364 173.209V173.209Z" fill="#1572B6"/>
<path d="M97.6284 177.65L152.858 162.338L165.852 16.7747H97.6284V177.65Z" fill="#33A9DC"/>
<path d="M97.6284 78.4969H125.277L127.187 57.1007H97.6284V36.2061H150.023L149.521 41.8123L144.385 99.3915H97.6284V78.4969Z" fill="white"/>
<path d="M97.752 132.762L97.6599 132.789L74.3904 126.506L72.9023 109.841H51.9307L54.8569 142.649L97.6568 154.528L97.752 154.501V132.762V132.762Z" fill="#EBEBEB"/>
<path d="M123.501 98.5082L120.984 126.49L97.6797 132.78V154.519L140.514 142.648L140.829 139.118L144.463 98.5082H123.501Z" fill="white"/>
<path d="M97.6994 36.2061V57.1007H47.2296L46.8112 52.4054L45.8594 41.8123L45.3594 36.2061H97.6994V36.2061ZM97.6284 78.4999V99.3945H74.652L74.2336 94.6992L73.2803 84.1061L72.7818 78.4999H97.6284V78.4999Z" fill="#EBEBEB"/>
</svg>
