<svg width="61" height="60" viewBox="0 0 61 60" fill="none" xmlns="http://www.w3.org/2000/svg">
<path d="M47.6001 14.1037C44.4132 12.6415 40.9958 11.5641 37.4227 10.9471C37.3577 10.9352 37.2927 10.965 37.2591 11.0245C36.8196 11.8062 36.3328 12.826 35.9919 13.6275C32.1488 13.0522 28.3254 13.0522 24.5611 13.6275C24.2201 12.8081 23.7156 11.8062 23.2741 11.0245C23.2406 10.9669 23.1756 10.9372 23.1106 10.9471C19.5394 11.5622 16.122 12.6395 12.9332 14.1037C12.9056 14.1156 12.882 14.1355 12.8663 14.1612C6.38418 23.8453 4.60847 33.2914 5.47957 42.6203C5.48352 42.666 5.50914 42.7096 5.54461 42.7374C9.8213 45.8781 13.964 47.7848 18.0298 49.0486C18.0948 49.0684 18.1638 49.0446 18.2052 48.991C19.167 47.6777 20.0243 46.2928 20.7594 44.8365C20.8027 44.7512 20.7613 44.65 20.6727 44.6163C19.3128 44.1004 18.0179 43.4715 16.7724 42.7572C16.6739 42.6997 16.666 42.5588 16.7566 42.4913C17.0187 42.2949 17.2809 42.0905 17.5312 41.8842C17.5765 41.8465 17.6396 41.8386 17.6928 41.8624C25.8756 45.5984 34.7345 45.5984 42.8208 41.8624C42.874 41.8366 42.9371 41.8446 42.9844 41.8822C43.2347 42.0886 43.4968 42.2949 43.7609 42.4913C43.8515 42.5588 43.8456 42.6997 43.7471 42.7572C42.5015 43.4853 41.2067 44.1004 39.8448 44.6143C39.7562 44.648 39.7168 44.7512 39.7601 44.8365C40.511 46.2908 41.3683 47.6756 42.3123 48.9891C42.3518 49.0446 42.4227 49.0684 42.4877 49.0486C46.5732 47.7848 50.7159 45.8781 54.9926 42.7374C55.0301 42.7096 55.0537 42.6679 55.0577 42.6223C56.1002 31.837 53.3115 22.4684 47.6651 14.1632C47.6513 14.1355 47.6277 14.1156 47.6001 14.1037ZM21.9813 36.94C19.5177 36.94 17.4878 34.6782 17.4878 31.9005C17.4878 29.1229 19.4784 26.8611 21.9813 26.8611C24.5039 26.8611 26.5142 29.1427 26.4748 31.9005C26.4748 34.6782 24.4842 36.94 21.9813 36.94ZM38.5953 36.94C36.1318 36.94 34.1019 34.6782 34.1019 31.9005C34.1019 29.1229 36.0924 26.8611 38.5953 26.8611C41.118 26.8611 43.1282 29.1427 43.0889 31.9005C43.0889 34.6782 41.118 36.94 38.5953 36.94Z" fill="black"/>
</svg>
