<svg width="190" height="191" viewBox="0 0 190 191" fill="none" xmlns="http://www.w3.org/2000/svg">
<g id="Logos/figma-original">
<path id="Vector" d="M67.9655 190.648C85.4942 190.648 99.635 176.508 99.635 158.979V127.309H67.9655C50.4367 127.309 36.2959 141.45 36.2959 158.979C36.2959 176.508 50.4367 190.648 67.9655 190.648Z" fill="#0ACF83"/>
<path id="Vector_2" d="M36.2959 95.6397C36.2959 78.1109 50.4367 63.9701 67.9655 63.9701H99.635V127.309H67.9655C50.4367 127.309 36.2959 113.168 36.2959 95.6397Z" fill="#A259FF"/>
<path id="Vector_3" d="M36.2959 32.3005C36.2959 14.7718 50.4367 0.630981 67.9655 0.630981H99.635V63.9701H67.9655C50.4367 63.9701 36.2959 49.8293 36.2959 32.3005Z" fill="#F24E1E"/>
<path id="Vector_4" d="M99.6353 0.630981H131.305C148.834 0.630981 162.974 14.7718 162.974 32.3005C162.974 49.8293 148.834 63.9701 131.305 63.9701H99.6353V0.630981Z" fill="#FF7262"/>
<path id="Vector_5" d="M162.974 95.6397C162.974 113.168 148.834 127.309 131.305 127.309C113.776 127.309 99.6353 113.168 99.6353 95.6397C99.6353 78.1109 113.776 63.9701 131.305 63.9701C148.834 63.9701 162.974 78.1109 162.974 95.6397Z" fill="#1ABCFE"/>
</g>
</svg>
