<svg width="189" height="190" viewBox="0 0 189 190" fill="none" xmlns="http://www.w3.org/2000/svg">
<g id="Logos/git-plain">
<path id="Vector" d="M183.991 86.6269L102.804 5.44386C98.1313 0.76855 90.5483 0.76855 85.8686 5.44386L69.013 22.3039L90.398 43.6889C95.3694 42.0112 101.067 43.1365 105.028 47.0974C106.916 48.9867 108.233 51.3692 108.831 53.9722C109.428 56.5753 109.281 59.2939 108.406 61.8172L129.016 82.4304C134.002 80.7114 139.757 81.822 143.737 85.8109C149.305 91.3744 149.305 100.394 143.737 105.96C142.414 107.284 140.843 108.334 139.114 109.051C137.384 109.767 135.531 110.136 133.659 110.136C131.788 110.136 129.934 109.767 128.205 109.051C126.476 108.334 124.905 107.284 123.582 105.96C121.594 103.971 120.239 101.438 119.687 98.6805C119.135 95.9228 119.412 93.0636 120.481 90.4626L101.261 71.2414L101.258 121.826C102.653 122.513 103.926 123.422 105.028 124.518C110.594 130.082 110.594 139.098 105.028 144.674C99.4614 150.237 90.4393 150.237 84.8787 144.674C79.3137 139.1 78.8571 130.083 84.4206 124.518C85.7964 123.144 87.153 122.106 88.626 121.41V70.3576C87.153 69.6624 85.7979 68.6313 84.4191 67.2481C80.2049 63.0353 79.4168 56.8487 81.5792 51.6696L60.6139 30.5865L5.00217 86.2513C0.325386 90.9311 0.354846 98.5141 5.03163 103.191L86.2324 184.374C90.9062 189.049 98.4951 189.049 103.176 184.374L183.985 103.568C188.662 98.8897 188.666 91.3023 183.991 86.6269V86.6269Z" fill="#F34F29"/>
</g>
</svg>
