<svg width="61" height="60" viewBox="0 0 61 60" fill="none" xmlns="http://www.w3.org/2000/svg">
<path d="M8.9545 50H16.909V29.3991L5.54541 20.3105V46.3645C5.54541 48.3762 7.07382 50 8.9545 50Z" fill="black"/>
<path d="M44.1818 50H52.1363C54.0227 50 55.5454 48.3701 55.5454 46.3645V20.3105L44.1818 29.3991" fill="black"/>
<path d="M44.1818 13.6458V29.3991L55.5454 20.3105V15.4635C55.5454 10.9676 50.7329 8.40466 47.3636 11.1009" fill="black"/>
<path d="M16.909 29.3991V13.6455L30.5454 24.5519L44.1818 13.6458V29.3991L30.5454 40.3055" fill="black"/>
<path d="M5.54541 15.4635V20.3105L16.909 29.3991V13.6455L13.7272 11.1009C10.3522 8.40466 5.54541 10.9676 5.54541 15.4635Z" fill="black"/>
</svg>
