<svg width="194" height="195" viewBox="0 0 194 195" fill="none" xmlns="http://www.w3.org/2000/svg">
<g id="Logos/html5-original">
<path id="Vector" d="M29.3012 172.837L14.1865 3.31238H180.268L165.137 172.811L97.126 191.665L29.3012 172.837Z" fill="#E44D26"/>
<path id="Vector_2" d="M97.2266 177.254L152.183 162.017L165.113 17.1731H97.2266V177.254Z" fill="#F16529"/>
<path id="Vector_3" d="M97.2274 80.0477H69.7144L67.8139 58.7557H97.2274V37.9653H45.0913L45.5898 43.5429L50.6991 100.84H97.2274V80.0477ZM97.2274 134.045L97.1352 134.071L73.9806 127.816L72.5016 111.236H51.6282L54.5408 143.881L97.1322 155.704L97.2274 155.678V134.045Z" fill="#EBEBEB"/>
<path id="Vector_4" d="M97.1548 80.0477V100.84H122.757L120.344 127.804L97.1548 134.063V155.695L139.779 143.881L140.092 140.369L144.978 85.6312L145.484 80.0477H139.882H97.1548ZM97.1548 37.9653V58.7557H147.377L147.794 54.0846L148.742 43.5429L149.24 37.9653H97.1548Z" fill="white"/>
</g>
</svg>
