<svg width="61" height="60" viewBox="0 0 61 60" fill="none" xmlns="http://www.w3.org/2000/svg">
<path fill-rule="evenodd" clip-rule="evenodd" d="M30.9092 7.5C24.7982 7.5 24.0332 7.5255 21.6332 7.635C19.2377 7.7445 17.6012 8.1255 16.1702 8.682C14.6702 9.246 13.3097 10.131 12.1847 11.277C11.0405 12.4007 10.155 13.7602 9.58968 15.261C9.03618 16.692 8.65368 18.33 8.54418 20.7255C8.43618 23.124 8.40918 23.8875 8.40918 30C8.40918 36.1125 8.43468 36.876 8.54418 39.276C8.65368 41.6715 9.03468 43.308 9.59118 44.739C10.1552 46.239 11.0402 47.5995 12.1862 48.7245C13.3099 49.8686 14.6694 50.7542 16.1702 51.3195C17.6012 51.8745 19.2377 52.2555 21.6332 52.365C24.0332 52.4745 24.7982 52.5 30.9092 52.5C37.0202 52.5 37.7852 52.4745 40.1852 52.365C42.5807 52.2555 44.2172 51.8745 45.6482 51.318C47.1482 50.754 48.5087 49.869 49.6337 48.723C50.7778 47.5993 51.6634 46.2398 52.2287 44.739C52.7837 43.308 53.1647 41.6715 53.2742 39.276C53.3837 36.876 53.4092 36.111 53.4092 30C53.4092 23.889 53.3837 23.124 53.2742 20.724C53.1647 18.3285 52.7837 16.692 52.2272 15.261C51.6623 13.7596 50.7767 12.3995 49.6322 11.2755C48.5085 10.1313 47.1489 9.24579 45.6482 8.6805C44.2172 8.127 42.5792 7.7445 40.1837 7.635C37.7852 7.527 37.0217 7.5 30.9092 7.5ZM30.9092 11.5545C36.9167 11.5545 37.6292 11.577 40.0022 11.685C42.1952 11.7855 43.3862 12.15 44.1797 12.4605C45.2297 12.867 45.9797 13.356 46.7672 14.142C47.5547 14.9295 48.0422 15.6795 48.4487 16.7295C48.7577 17.523 49.1237 18.714 49.2242 20.907C49.3322 23.28 49.3547 23.9925 49.3547 30C49.3547 36.0075 49.3322 36.72 49.2242 39.093C49.1237 41.286 48.7592 42.477 48.4487 43.2705C48.0886 44.2478 47.514 45.132 46.7672 45.858C46.0413 46.605 45.1571 47.1796 44.1797 47.5395C43.3862 47.8485 42.1952 48.2145 40.0022 48.315C37.6292 48.423 36.9182 48.4455 30.9092 48.4455C24.9002 48.4455 24.1892 48.423 21.8162 48.315C19.6232 48.2145 18.4322 47.85 17.6387 47.5395C16.6614 47.1794 15.7772 46.6048 15.0512 45.858C14.3044 45.1319 13.7299 44.2478 13.3697 43.2705C13.0607 42.477 12.6947 41.286 12.5942 39.093C12.4862 36.72 12.4637 36.0075 12.4637 30C12.4637 23.9925 12.4862 23.28 12.5942 20.907C12.6947 18.714 13.0592 17.523 13.3697 16.7295C13.7762 15.6795 14.2652 14.9295 15.0512 14.142C15.7771 13.3951 16.6613 12.8205 17.6387 12.4605C18.4322 12.1515 19.6232 11.7855 21.8162 11.685C24.1892 11.577 24.9017 11.5545 30.9092 11.5545V11.5545Z" fill="black"/>
<path fill-rule="evenodd" clip-rule="evenodd" d="M30.9092 37.5076C29.9233 37.5076 28.9471 37.3134 28.0362 36.9361C27.1254 36.5588 26.2978 36.0058 25.6006 35.3087C24.9035 34.6116 24.3505 33.7839 23.9732 32.8731C23.5959 31.9622 23.4017 30.986 23.4017 30.0001C23.4017 29.0142 23.5959 28.0379 23.9732 27.1271C24.3505 26.2162 24.9035 25.3886 25.6006 24.6915C26.2978 23.9943 27.1254 23.4413 28.0362 23.0641C28.9471 22.6868 29.9233 22.4926 30.9092 22.4926C32.9003 22.4926 34.8099 23.2836 36.2178 24.6915C37.6258 26.0994 38.4167 28.009 38.4167 30.0001C38.4167 31.9912 37.6258 33.9008 36.2178 35.3087C34.8099 36.7166 32.9003 37.5076 30.9092 37.5076V37.5076ZM30.9092 18.4351C27.842 18.4351 24.9004 19.6535 22.7315 21.8224C20.5627 23.9913 19.3442 26.9329 19.3442 30.0001C19.3442 33.0673 20.5627 36.0089 22.7315 38.1778C24.9004 40.3466 27.842 41.5651 30.9092 41.5651C33.9765 41.5651 36.9181 40.3466 39.0869 38.1778C41.2558 36.0089 42.4742 33.0673 42.4742 30.0001C42.4742 26.9329 41.2558 23.9913 39.0869 21.8224C36.9181 19.6535 33.9765 18.4351 30.9092 18.4351V18.4351ZM45.8387 18.2251C45.8387 18.9501 45.5507 19.6455 45.038 20.1581C44.5254 20.6708 43.83 20.9588 43.105 20.9588C42.3799 20.9588 41.6846 20.6708 41.1719 20.1581C40.6593 19.6455 40.3712 18.9501 40.3712 18.2251C40.3712 17.5 40.6593 16.8047 41.1719 16.292C41.6846 15.7794 42.3799 15.4913 43.105 15.4913C43.83 15.4913 44.5254 15.7794 45.038 16.292C45.5507 16.8047 45.8387 17.5 45.8387 18.2251" fill="black"/>
</svg>
