<svg width="194" height="194" viewBox="0 0 194 194" fill="none" xmlns="http://www.w3.org/2000/svg">
<g id="Logos/javascript-original">
<path id="Vector" d="M2.71045 2.73828H191.827V191.856H2.71045V2.73828Z" fill="#F0DB4F"/>
<path id="Vector_2" d="M176.351 146.751C174.965 138.123 169.339 130.876 152.675 124.119C146.886 121.459 140.432 119.554 138.509 115.167C137.826 112.614 137.735 111.175 138.167 109.63C139.408 104.614 145.395 103.051 150.14 104.489C153.196 105.513 156.089 107.868 157.834 111.626C165.995 106.341 165.978 106.376 171.676 102.744C169.59 99.5096 168.477 98.0171 167.111 96.6332C162.203 91.1509 155.515 88.3274 144.819 88.5434L139.248 89.264C133.909 90.6131 128.821 93.4154 125.837 97.1726C116.885 107.331 119.438 125.109 130.331 132.425C141.063 140.48 156.829 142.313 158.843 149.845C160.802 159.066 152.066 162.051 143.382 160.991C136.983 159.66 133.424 156.407 129.576 150.493C122.494 154.592 122.494 154.592 115.212 158.779C116.939 162.555 118.753 164.263 121.648 167.534C135.347 181.429 169.628 180.747 175.777 159.714C176.026 158.992 177.682 154.176 176.351 146.751V146.751ZM105.521 89.6568H87.8321L87.7596 135.389C87.7596 145.115 88.2626 154.031 86.6809 156.764C84.0931 162.139 77.387 161.473 74.3309 160.431C71.2203 158.902 69.6386 156.728 67.8061 153.655C67.303 152.773 66.9254 152.09 66.7985 152.037L52.4165 160.844C54.808 165.753 58.3309 170.013 62.8434 172.781C69.5842 176.826 78.6439 178.067 88.1191 175.891C94.2858 174.095 99.6065 170.374 102.392 164.71C106.42 157.285 105.556 148.298 105.519 138.358C105.61 122.14 105.521 105.926 105.521 89.6568V89.6568Z" fill="#323330"/>
</g>
</svg>
