<svg width="61" height="60" viewBox="0 0 61 60" fill="none" xmlns="http://www.w3.org/2000/svg">
<path d="M53.1362 10.8088V49.1912C53.1362 50.0687 52.7876 50.9103 52.1671 51.5309C51.5466 52.1514 50.705 52.5 49.8274 52.5H11.4451C10.5675 52.5 9.72589 52.1514 9.10536 51.5309C8.48484 50.9103 8.13623 50.0687 8.13623 49.1912V10.8088C8.13623 9.93127 8.48484 9.08966 9.10536 8.46913C9.72589 7.84861 10.5675 7.5 11.4451 7.5H49.8274C50.705 7.5 51.5466 7.84861 52.1671 8.46913C52.7876 9.08966 53.1362 9.93127 53.1362 10.8088V10.8088ZM21.3715 24.7059H14.7539V45.8824H21.3715V24.7059ZM21.9671 17.4265C21.9706 16.9259 21.8755 16.4295 21.6871 15.9657C21.4988 15.5019 21.2209 15.0798 20.8694 14.7234C20.5179 14.367 20.0997 14.0833 19.6385 13.8885C19.1774 13.6937 18.6824 13.5917 18.1818 13.5882H18.0627C17.0447 13.5882 16.0685 13.9926 15.3487 14.7124C14.6288 15.4322 14.2245 16.4085 14.2245 17.4265C14.2245 18.4444 14.6288 19.4207 15.3487 20.1405C16.0685 20.8603 17.0447 21.2647 18.0627 21.2647V21.2647C18.5633 21.277 19.0614 21.1906 19.5286 21.0103C19.9958 20.83 20.4229 20.5595 20.7855 20.2141C21.1481 19.8687 21.4391 19.4553 21.6418 18.9974C21.8445 18.5395 21.9551 18.0462 21.9671 17.5456V17.4265ZM46.5186 33.0176C46.5186 26.6515 42.4686 24.1765 38.4451 24.1765C37.1277 24.1105 35.816 24.3911 34.6409 24.9903C33.4658 25.5894 32.4683 26.4862 31.748 27.5912H31.5627V24.7059H25.3421V45.8824H31.9598V34.6191C31.8641 33.4656 32.2275 32.3209 32.9709 31.4337C33.7144 30.5465 34.7779 29.9885 35.9303 29.8809H36.1818C38.2862 29.8809 39.848 31.2044 39.848 34.5397V45.8824H46.4656L46.5186 33.0176Z" fill="black"/>
</svg>
