<svg width="190" height="189" viewBox="0 0 190 189" fill="none" xmlns="http://www.w3.org/2000/svg">
<g id="Microsoft suite">
<g id="Group" style="mix-blend-mode:multiply" opacity="0.2">
<g id="Group_2" style="mix-blend-mode:multiply" opacity="0.2">
<g id="Vector" style="mix-blend-mode:multiply">
<path d="M69.8542 130.189C68.3843 130.206 66.96 130.703 65.8001 131.606C64.6398 132.508 63.8074 133.766 63.4311 135.187C63.0544 136.608 63.1542 138.113 63.7151 139.473C64.276 140.831 65.2671 141.968 66.5362 142.71L90.2417 156.149C92.1943 157.259 94.4023 157.841 96.6483 157.839C97.8566 157.838 99.0585 157.663 100.217 157.317L135.879 147.155C138.539 146.391 140.879 144.783 142.546 142.574C144.214 140.365 145.118 137.673 145.123 134.906V130.189H69.8542Z" fill="white"/>
</g>
</g>
</g>
<g id="Group_3" style="mix-blend-mode:multiply" opacity="0.12">
<g id="Group_4" style="mix-blend-mode:multiply" opacity="0.12">
<g id="Vector_2" style="mix-blend-mode:multiply">
<path d="M69.8542 130.189C68.3843 130.206 66.96 130.703 65.8001 131.606C64.6398 132.508 63.8074 133.766 63.4311 135.187C63.0544 136.608 63.1542 138.113 63.7151 139.473C64.276 140.831 65.2671 141.968 66.5362 142.71L90.2417 156.149C92.1943 157.259 94.4023 157.841 96.6483 157.839C97.8566 157.838 99.0585 157.663 100.217 157.317L135.879 147.155C138.539 146.391 140.879 144.783 142.546 142.574C144.214 140.365 145.118 137.673 145.123 134.906V130.189H69.8542Z" fill="white"/>
</g>
</g>
</g>
<g id="Vector_3" filter="url(#filter0_d_154_2210)">
<path d="M100.07 32.1122L109.648 54.023V130.189L100.216 157.317L135.879 147.155C138.539 146.39 140.879 144.783 142.546 142.574C144.213 140.365 145.118 137.673 145.123 134.906V54.5238C145.125 51.7491 144.22 49.0498 142.548 46.8351C140.876 44.6205 138.527 43.0124 135.858 42.2539L100.07 32.1122Z" fill="url(#paint0_linear_154_2210)"/>
</g>
<path id="Vector_4" d="M54.8504 129.376L65.2843 123.742C66.7153 122.955 67.9082 121.798 68.7378 120.392C69.5678 118.986 70.0038 117.382 70.0003 115.749V74.7445C70.0023 72.8768 70.5777 71.0546 71.6489 69.5246C72.7201 67.9942 74.2351 66.83 75.9893 66.1889L109.649 54.0231V44.7789C109.645 41.9138 108.708 39.1277 106.98 36.8423C105.251 34.557 102.826 32.8966 100.07 32.1123C98.8967 31.7753 97.6814 31.6066 96.4605 31.6114C94.1638 31.6167 91.9072 32.2132 89.9078 33.3434L51.3866 55.317C49.4344 56.4294 47.8118 58.0383 46.6829 59.9807C45.5539 61.9235 44.9592 64.1299 44.9592 66.3767V123.47C44.9565 124.633 45.2558 125.775 45.8281 126.787C46.4004 127.798 47.2261 128.643 48.2238 129.239C49.2215 129.834 50.3571 130.16 51.519 130.184C52.6809 130.208 53.8291 129.93 54.8504 129.376Z" fill="url(#paint1_linear_154_2210)"/>
<path id="Vector_5" d="M109.648 130.189H69.8542C68.3843 130.206 66.96 130.703 65.8001 131.606C64.6398 132.508 63.8074 133.766 63.4311 135.187C63.0544 136.608 63.1542 138.113 63.7151 139.473C64.276 140.831 65.2671 141.968 66.5362 142.71L90.2417 156.149C92.1943 157.259 94.4023 157.841 96.6483 157.839C97.8566 157.838 99.0585 157.663 100.217 157.317C102.939 156.544 105.334 154.902 107.036 152.642C108.739 150.382 109.656 147.627 109.648 144.797V130.189Z" fill="url(#paint2_linear_154_2210)"/>
<path id="Vector_6" d="M54.8504 129.376L65.2843 123.742C66.7153 122.955 67.9082 121.798 68.7378 120.392C69.5678 118.986 70.0038 117.382 70.0003 115.749V74.7445C70.0023 72.8768 70.5777 71.0546 71.6489 69.5246C72.7201 67.9942 74.2351 66.83 75.9893 66.1889L109.649 54.0231V44.7789C109.645 41.9138 108.708 39.1277 106.98 36.8423C105.251 34.557 102.826 32.8966 100.07 32.1123C98.8967 31.7753 97.6814 31.6066 96.4605 31.6114C94.1638 31.6167 91.9072 32.2132 89.9078 33.3434L51.3866 55.317C49.4344 56.4294 47.8118 58.0383 46.6829 59.9807C45.5539 61.9235 44.9592 64.1299 44.9592 66.3767V123.47C44.9565 124.633 45.2558 125.775 45.8281 126.787C46.4004 127.798 47.2261 128.643 48.2238 129.239C49.2215 129.834 50.3571 130.16 51.519 130.184C52.6809 130.208 53.8291 129.93 54.8504 129.376Z" fill="url(#paint3_linear_154_2210)"/>
<path id="Vector_7" d="M109.648 130.189H69.8542C68.3843 130.206 66.96 130.703 65.8001 131.606C64.6398 132.508 63.8074 133.766 63.4311 135.187C63.0544 136.608 63.1542 138.113 63.7151 139.473C64.276 140.831 65.2671 141.968 66.5362 142.71L90.2417 156.149C92.1943 157.259 94.4023 157.841 96.6483 157.839C97.8566 157.838 99.0585 157.663 100.217 157.317C102.939 156.544 105.334 154.902 107.036 152.642C108.739 150.382 109.656 147.627 109.648 144.797V130.189Z" fill="url(#paint4_linear_154_2210)"/>
</g>
<defs>
<filter id="filter0_d_154_2210" x="94.6833" y="32.1122" width="55.8269" height="135.979" filterUnits="userSpaceOnUse" color-interpolation-filters="sRGB">
<feFlood flood-opacity="0" result="BackgroundImageFix"/>
<feColorMatrix in="SourceAlpha" type="matrix" values="0 0 0 0 0 0 0 0 0 0 0 0 0 0 0 0 0 0 127 0" result="hardAlpha"/>
<feOffset dy="5.38698"/>
<feGaussianBlur stdDeviation="2.69349"/>
<feComposite in2="hardAlpha" operator="out"/>
<feColorMatrix type="matrix" values="0 0 0 0 0 0 0 0 0 0 0 0 0 0 0 0 0 0 0.12 0"/>
<feBlend mode="normal" in2="BackgroundImageFix" result="effect1_dropShadow_154_2210"/>
<feBlend mode="normal" in="SourceGraphic" in2="effect1_dropShadow_154_2210" result="shape"/>
</filter>
<linearGradient id="paint0_linear_154_2210" x1="122.586" y1="24.9755" x2="122.586" y2="148.553" gradientUnits="userSpaceOnUse">
<stop stop-color="#FFB900"/>
<stop offset="0.17" stop-color="#EF8400"/>
<stop offset="0.31" stop-color="#E25C01"/>
<stop offset="0.43" stop-color="#DB4401"/>
<stop offset="0.5" stop-color="#D83B01"/>
</linearGradient>
<linearGradient id="paint1_linear_154_2210" x1="100.3" y1="29.3369" x2="34.8594" y2="122.782" gradientUnits="userSpaceOnUse">
<stop stop-color="#800600"/>
<stop offset="0.6" stop-color="#C72127"/>
<stop offset="0.73" stop-color="#C13959"/>
<stop offset="0.85" stop-color="#BC4B81"/>
<stop offset="0.94" stop-color="#B95799"/>
<stop offset="1" stop-color="#B85BA2"/>
</linearGradient>
<linearGradient id="paint2_linear_154_2210" x1="66.8701" y1="144.025" x2="152.302" y2="144.025" gradientUnits="userSpaceOnUse">
<stop stop-color="#F32B44"/>
<stop offset="0.6" stop-color="#A4070A"/>
</linearGradient>
<linearGradient id="paint3_linear_154_2210" x1="101.636" y1="27.4379" x2="87.7796" y2="47.2202" gradientUnits="userSpaceOnUse">
<stop stop-opacity="0.4"/>
<stop offset="1" stop-opacity="0"/>
</linearGradient>
<linearGradient id="paint4_linear_154_2210" x1="124.924" y1="145.945" x2="86.6735" y2="142.606" gradientUnits="userSpaceOnUse">
<stop stop-opacity="0.4"/>
<stop offset="1" stop-opacity="0"/>
</linearGradient>
</defs>
</svg>
