<svg width="189" height="189" viewBox="0 0 189 189" fill="none" xmlns="http://www.w3.org/2000/svg">
<g id="photoshop" clip-path="url(#clip0_154_2171)">
<g id="Layer 2">
<g id="Surfaces">
<g id="Photo Surface">
<g id="Outline no shadow">
<path id="Vector" d="M155.255 0.329712H33.4867C15.047 0.329712 0.0986328 15.6614 0.0986328 34.5739V154.63C0.0986328 173.542 15.047 188.874 33.4867 188.874H155.255C173.695 188.874 188.643 173.542 188.643 154.63V34.5739C188.643 15.6614 173.695 0.329712 155.255 0.329712Z" fill="#001E36"/>
</g>
</g>
</g>
<g id="Outlined Mnemonics &#38; Logos">
<g id="Ps">
<path id="Vector_2" d="M42.5542 132.549V49.6546C42.5542 49.0504 42.8074 48.7465 43.3133 48.7465C44.6609 48.7465 45.8913 48.7262 47.7472 48.6816C49.6011 48.6391 51.6037 48.5959 53.755 48.5519C55.9055 48.5092 58.1822 48.466 60.5853 48.4221C62.9882 48.3796 65.3701 48.358 67.7313 48.3572C74.1385 48.3572 79.535 49.1788 83.9209 50.822C87.8772 52.1946 91.4852 54.4547 94.4824 57.4379C97.023 60.0237 98.9864 63.1441 100.237 66.5836C101.42 69.931 102.02 73.4659 102.008 77.0264C102.008 83.9465 100.448 89.6544 97.3283 94.1501C94.1878 98.6645 89.7733 102.083 84.6801 103.944C79.3677 105.977 73.4645 106.667 66.9726 106.667C65.1168 106.667 63.8097 106.645 63.0515 106.602C62.2927 106.559 61.1545 106.538 59.6367 106.537V132.419C59.6588 132.578 59.6446 132.739 59.5951 132.891C59.5457 133.043 59.4625 133.181 59.352 133.295C59.2416 133.408 59.1069 133.493 58.9587 133.544C58.8105 133.595 58.6529 133.609 58.4982 133.587H43.4395C42.8488 133.587 42.5542 133.242 42.5542 132.549ZM59.6367 64.3134V91.3501C60.7315 91.4373 61.7433 91.4805 62.6721 91.4798H66.846C69.9171 91.4693 72.968 90.9698 75.8896 89.9991C78.3954 89.2357 80.6344 87.7497 82.3401 85.7182C83.9842 83.7298 84.8064 80.9623 84.8066 77.4158C84.8733 74.9064 84.2367 72.4301 82.9723 70.2807C81.6431 68.2024 79.722 66.5945 77.4704 65.6756C74.5304 64.5035 71.39 63.952 68.2373 64.0541C66.2134 64.0541 64.4216 64.0757 62.8619 64.1188C61.3007 64.1635 60.2256 64.2283 59.6367 64.3134V64.3134Z" fill="#31A8FF"/>
<path id="Vector_3" d="M150.912 86.4344C148.535 85.1817 146.004 84.2652 143.387 83.7101C140.503 83.0315 137.555 82.6834 134.596 82.6722C132.996 82.6277 131.398 82.8244 129.853 83.256C128.87 83.4806 127.996 84.0551 127.386 84.8776C126.974 85.5355 126.755 86.3009 126.754 87.0829C126.777 87.8416 127.044 88.5713 127.513 89.1585C128.252 90.0449 129.155 90.7723 130.169 91.2989C131.972 92.295 133.831 93.1829 135.734 93.9583C139.979 95.4157 144.035 97.3978 147.813 99.8608C150.387 101.527 152.517 103.822 154.011 106.542C155.268 109.116 155.897 111.965 155.845 114.844C155.921 118.646 154.862 122.38 152.81 125.546C150.613 128.761 147.561 131.26 144.019 132.746C140.181 134.475 135.438 135.34 129.79 135.341C126.202 135.378 122.62 135.03 119.102 134.303C116.331 133.782 113.633 132.91 111.07 131.708C110.794 131.562 110.564 131.338 110.407 131.062C110.25 130.786 110.173 130.47 110.185 130.152V116.141C110.17 116.004 110.191 115.865 110.247 115.74C110.303 115.614 110.391 115.506 110.501 115.428C110.61 115.365 110.735 115.337 110.859 115.349C110.983 115.36 111.101 115.411 111.197 115.493C114.223 117.323 117.509 118.658 120.936 119.449C123.957 120.226 127.055 120.639 130.169 120.682C133.12 120.682 135.291 120.292 136.683 119.514C137.311 119.219 137.843 118.743 138.214 118.145C138.584 117.546 138.777 116.85 138.77 116.141C138.77 115.018 138.138 113.937 136.873 112.898C135.608 111.86 133.036 110.606 129.157 109.136C125.186 107.718 121.42 105.755 117.964 103.299C115.491 101.535 113.455 99.2026 112.019 96.4879C110.775 93.9317 110.146 91.1071 110.185 88.2504C110.178 84.8181 111.097 81.4507 112.841 78.5211C114.829 75.295 117.684 72.7272 121.063 71.1267C124.772 69.2255 129.41 68.2742 134.976 68.2728C138.235 68.2459 141.492 68.4845 144.715 68.9863C147.048 69.2899 149.33 69.9229 151.495 70.8673C151.667 70.9178 151.825 71.0086 151.956 71.1324C152.088 71.2562 152.19 71.4097 152.254 71.5808C152.339 71.8976 152.382 72.225 152.38 72.5537V85.6559C152.389 85.8084 152.359 85.9605 152.292 86.0971C152.225 86.2337 152.125 86.35 152.001 86.4343C151.832 86.5206 151.645 86.5655 151.457 86.5655C151.268 86.5655 151.081 86.5206 150.912 86.4344V86.4344Z" fill="#31A8FF"/>
</g>
</g>
</g>
</g>
<defs>
<clipPath id="clip0_154_2171">
<rect width="188.544" height="188.544" fill="white" transform="translate(0.0986328 0.329712)"/>
</clipPath>
</defs>
</svg>
