<svg width="195" height="194" viewBox="0 0 195 194" fill="none" xmlns="http://www.w3.org/2000/svg">
<g id="Logos/python-original">
<path id="Vector" d="M96.4832 19.1144C90.105 19.1446 84.0168 19.6869 78.6568 20.6356C62.8699 23.4244 60.0056 29.2618 60.0056 40.0286V54.2459H97.3096V58.985H46.0044C35.1635 58.985 25.6702 65.5007 22.7002 77.9006C19.2739 92.1088 19.1228 100.977 22.7002 115.813C25.3515 126.858 31.6843 134.726 42.5267 134.726H55.3541V117.682C55.3541 105.368 66.0062 94.5078 78.6584 94.5078H115.92C126.293 94.5078 134.571 85.9663 134.571 75.5515V40.0301C134.571 29.919 126.042 22.3246 115.92 20.6372C109.509 19.5706 102.86 19.0857 96.4832 19.1144V19.1144ZM76.3092 30.5489C80.1615 30.5489 83.3098 33.7471 83.3098 37.681C83.3098 41.5983 80.163 44.7662 76.3092 44.7662C72.4418 44.7662 69.3101 41.5983 69.3101 37.681C69.3086 33.7471 72.4418 30.5489 76.3092 30.5489V30.5489Z" fill="url(#paint0_linear_154_2352)"/>
<path id="Vector_2" d="M139.223 58.9849V75.5514C139.223 88.3924 128.334 99.2015 115.919 99.2015H78.6571C68.4507 99.2015 60.0059 107.938 60.0059 118.159V153.684C60.0059 163.792 68.7952 169.74 78.6571 172.639C90.4648 176.109 101.789 176.737 115.919 172.639C125.309 169.918 134.57 164.446 134.57 153.684V139.465H97.3098V134.724H153.224C164.065 134.724 168.108 127.163 171.878 115.812C175.773 104.126 175.605 92.8883 171.878 77.899C169.198 67.105 164.082 58.9834 153.224 58.9834H139.223V58.9849ZM118.265 148.943C122.134 148.943 125.266 152.111 125.266 156.031C125.266 159.962 122.132 163.16 118.265 163.16C114.413 163.16 111.266 159.962 111.266 156.031C111.266 152.111 114.413 148.943 118.265 148.943V148.943Z" fill="url(#paint1_linear_154_2352)"/>
<path id="Vector_3" opacity="0.444" d="M147.724 181.287C147.724 186.64 125.341 190.98 97.7326 190.98C70.1229 190.98 47.7402 186.64 47.7402 181.287C47.7402 175.934 70.1214 171.593 97.7326 171.593C125.341 171.593 147.724 175.932 147.724 181.287Z" fill="url(#paint2_radial_154_2352)"/>
</g>
<defs>
<linearGradient id="paint0_linear_154_2352" x1="16.3338" y1="23.5598" x2="102.374" y2="96.9348" gradientUnits="userSpaceOnUse">
<stop stop-color="#5A9FD4"/>
<stop offset="1" stop-color="#306998"/>
</linearGradient>
<linearGradient id="paint1_linear_154_2352" x1="134.747" y1="142.546" x2="103.891" y2="99.2759" gradientUnits="userSpaceOnUse">
<stop stop-color="#FFD43B"/>
<stop offset="1" stop-color="#FFE873"/>
</linearGradient>
<radialGradient id="paint2_radial_154_2352" cx="0" cy="0" r="1" gradientUnits="userSpaceOnUse" gradientTransform="translate(97.5306 181.01) rotate(-90) scale(9.69622 42.623)">
<stop stop-color="#B8B8B8" stop-opacity="0.498"/>
<stop offset="1" stop-color="#7F7F7F" stop-opacity="0"/>
</radialGradient>
</defs>
</svg>
