<svg width="190" height="170" viewBox="0 0 190 170" fill="none" xmlns="http://www.w3.org/2000/svg">
<g id="Group">
<path id="Vector" d="M94.8356 102.519C104.347 102.519 112.058 94.808 112.058 85.2966C112.058 75.7851 104.347 68.0745 94.8356 68.0745C85.3241 68.0745 77.6135 75.7851 77.6135 85.2966C77.6135 94.808 85.3241 102.519 94.8356 102.519Z" fill="#61DAFB"/>
<path id="Vector_2" d="M160.25 56.8952C156.926 55.6867 153.452 54.4781 149.826 53.4206C150.732 49.7949 151.488 46.1692 152.092 42.6946C155.264 22.7532 151.79 8.70359 142.121 3.26503C139.251 1.60325 136.078 0.8479 132.453 0.8479C121.878 0.8479 108.432 8.70359 94.8361 21.8468C81.2397 8.70359 67.7943 0.8479 57.2194 0.8479C53.5937 0.8479 50.4212 1.60325 47.5508 3.26503C37.8823 8.85466 34.4077 22.9043 37.5802 42.6946C38.1844 46.1692 38.9398 49.7949 39.8462 53.4206C36.2205 54.4781 32.7459 55.5356 29.4223 56.8952C10.5385 64.1466 0.265625 74.1173 0.265625 85.2966C0.265625 96.4758 10.6895 106.447 29.4223 113.698C32.7459 114.906 36.2205 116.115 39.8462 117.173C38.9398 120.798 38.1844 124.424 37.5802 127.899C34.4077 147.84 37.8823 161.89 47.5508 167.328C50.4212 168.99 53.5937 169.745 57.2194 169.745C67.9454 169.745 81.3907 161.89 94.8361 148.746C108.432 161.89 121.878 169.745 132.453 169.745C136.078 169.745 139.251 168.99 142.121 167.328C151.79 161.738 155.264 147.689 152.092 127.899C151.488 124.424 150.732 120.798 149.826 117.173C153.452 116.115 156.926 115.058 160.25 113.698C179.134 106.447 189.406 96.4758 189.406 85.2966C189.406 74.1173 179.134 64.1466 160.25 56.8952V56.8952ZM137.891 10.8186C144.085 14.4443 146.2 25.6235 143.632 41.486C143.179 44.6585 142.423 47.982 141.517 51.4567C133.661 49.6438 125.352 48.4353 116.59 47.6799C111.454 40.4285 106.166 33.9324 100.879 28.0407C112.058 17.0125 123.388 9.45895 132.604 9.45895C134.568 9.45895 136.381 9.91216 137.891 10.8186V10.8186ZM120.971 100.404C118.252 105.238 115.08 110.072 111.756 114.906C106.166 115.36 100.577 115.511 94.8361 115.511C88.9443 115.511 83.3547 115.36 77.9161 114.906C74.5925 110.072 71.5711 105.238 68.8518 100.404C65.9815 95.4183 63.2622 90.2819 60.8451 85.2966C63.2622 80.3112 65.9815 75.1748 68.8518 70.1895C71.5711 65.3552 74.7436 60.5209 78.0672 55.6867C83.6568 55.2335 89.2464 55.0824 94.9871 55.0824C100.879 55.0824 106.469 55.2335 111.907 55.6867C115.231 60.5209 118.252 65.3552 120.971 70.1895C123.842 75.1748 126.561 80.3112 128.978 85.2966C126.41 90.2819 123.842 95.2673 120.971 100.404ZM133.51 95.4183C135.776 100.706 137.589 105.842 139.251 110.979C134.115 112.187 128.676 113.094 122.935 113.849C124.748 110.979 126.712 107.957 128.374 104.785C130.187 101.612 131.848 98.4397 133.51 95.4183ZM94.8361 136.359C91.2104 132.431 87.7357 128.201 84.4122 123.82C87.8868 123.971 91.3614 124.122 94.8361 124.122C98.3107 124.122 101.785 123.971 105.26 123.82C101.936 128.201 98.4618 132.431 94.8361 136.359ZM66.7369 113.698C60.9962 112.943 55.5576 112.036 50.4212 110.828C52.083 105.842 53.8958 100.555 56.1619 95.2673C57.8237 98.2887 59.4854 101.461 61.2983 104.483C63.1111 107.806 64.924 110.676 66.7369 113.698V113.698ZM56.1619 75.1748C53.8958 69.8873 52.083 64.7509 50.4212 59.6145C55.5576 58.4059 60.9962 57.4995 66.7369 56.7442C64.924 59.6145 62.9601 62.6359 61.2983 65.8084C59.4854 68.9809 57.8237 72.1534 56.1619 75.1748V75.1748ZM94.8361 34.2346C98.4618 38.1624 101.936 42.3924 105.26 46.7735C101.785 46.6224 98.3107 46.4713 94.8361 46.4713C91.3614 46.4713 87.8868 46.6224 84.4122 46.7735C87.7357 42.3924 91.2104 38.1624 94.8361 34.2346ZM128.374 65.9595L122.935 56.8952C128.676 57.6506 134.115 58.557 139.251 59.7656C137.589 64.7509 135.776 70.0384 133.51 75.3259C131.848 72.1534 130.187 68.9809 128.374 65.9595ZM46.0401 41.486C43.4719 25.6235 45.5869 14.4443 51.7808 10.8186C53.2915 9.91216 55.1044 9.45895 57.0683 9.45895C66.1326 9.45895 77.4629 16.8614 88.7932 28.0407C83.5057 33.7814 78.2182 40.4285 73.0818 47.6799C64.3197 48.4353 56.0108 49.7949 48.1551 51.4567C47.2487 47.982 46.6444 44.6585 46.0401 41.486V41.486ZM8.7256 85.2966C8.7256 78.1962 17.3366 70.6427 32.4437 65.0531C35.4652 63.8445 38.7887 62.787 42.1123 61.8806C44.5294 69.4341 47.5508 77.4409 51.1765 85.4476C47.5508 93.4544 44.3784 101.31 42.1123 108.864C21.2645 102.821 8.7256 93.7565 8.7256 85.2966ZM51.7808 159.775C45.5869 156.149 43.4719 144.97 46.0401 129.107C46.4933 125.935 47.2487 122.611 48.1551 119.136C56.0108 120.949 64.3197 122.158 73.0818 122.913C78.2182 130.165 83.5057 136.661 88.7932 142.552C77.614 153.581 66.2836 161.134 57.0683 161.134C55.1044 161.134 53.2915 160.681 51.7808 159.775ZM143.632 129.107C146.2 144.97 144.085 156.149 137.891 159.775C136.381 160.681 134.568 161.134 132.604 161.134C123.54 161.134 112.209 153.732 100.879 142.552C106.166 136.812 111.454 130.165 116.59 122.913C125.352 122.158 133.661 120.798 141.517 119.136C142.423 122.611 143.028 125.935 143.632 129.107V129.107ZM157.228 105.54C154.207 106.749 150.883 107.806 147.56 108.713C145.143 101.159 142.121 93.1523 138.496 85.1455C142.121 77.1387 145.294 69.2831 147.56 61.7295C168.408 67.7723 180.947 76.8366 180.947 85.2966C180.947 92.3969 172.184 99.9505 157.228 105.54Z" fill="#61DAFB"/>
</g>
</svg>
