<svg width="189" height="189" viewBox="0 0 189 189" fill="none" xmlns="http://www.w3.org/2000/svg">
<g id="Logos/vscode-original">
<path id="Vector" d="M5.45734 65.9444C5.45734 65.9444 0.998563 62.7171 6.35587 58.413L18.8293 47.227C18.8293 47.227 22.4028 43.4576 26.1781 46.7438L141.33 134.134V176.041C141.33 176.041 141.273 182.622 132.85 181.898L5.45734 65.9444Z" fill="#2489CA"/>
<path id="Vector_2" d="M35.1431 92.9535L5.4577 120.002C5.4577 120.002 2.40859 122.275 5.4577 126.344L19.2391 138.904C19.2391 138.904 22.5121 142.432 27.3524 138.421L58.8143 114.502L35.1431 92.9535Z" fill="#1070B3"/>
<path id="Vector_3" d="M87.2505 93.1773L141.682 51.5134L141.33 9.83188C141.33 9.83188 139.006 0.734614 131.251 5.47326L58.8142 71.5537L87.2505 93.1773Z" fill="#0877B9"/>
<path id="Vector_4" d="M132.849 181.949C136.008 185.194 139.841 184.129 139.841 184.129L182.259 163.18C187.69 159.468 186.93 154.865 186.93 154.865V29.741C186.93 24.2393 181.315 22.3406 181.315 22.3406L144.547 4.57473C136.515 -0.402542 131.25 5.47327 131.25 5.47327C131.25 5.47327 138.016 0.587315 141.33 9.83335V175.277C141.33 176.415 141.089 177.53 140.606 178.538C139.639 180.5 137.533 182.323 132.498 181.559L132.849 181.949Z" fill="#3C99D4"/>
</g>
</svg>
